<svg width="24" height="24" viewBox="0 0 24 24" fill="none" xmlns="http://www.w3.org/2000/svg">
<path fill-rule="evenodd" clip-rule="evenodd" d="M7.5 11.6465C7.99246 11.6465 8.48009 11.5495 8.93506 11.361C9.39003 11.1726 9.80343 10.8964 10.1517 10.5481C10.4999 10.1999 10.7761 9.78652 10.9645 9.33155C11.153 8.87658 11.25 8.38894 11.25 7.89648C11.25 7.40403 11.153 6.91639 10.9645 6.46142C10.7761 6.00645 10.4999 5.59305 10.1517 5.24483C9.80343 4.89661 9.39003 4.62039 8.93506 4.43194C8.48009 4.24348 7.99246 4.14648 7.5 4.14648C6.50544 4.14648 5.55161 4.54157 4.84835 5.24483C4.14509 5.9481 3.75 6.90192 3.75 7.89648C3.75 8.89105 4.14509 9.84487 4.84835 10.5481C5.55161 11.2514 6.50544 11.6465 7.5 11.6465ZM8 17.8275C8 16.5635 8.771 14.6925 10.48 13.2755C9.637 12.9785 8.652 12.7925 7.5 12.7925C2.46 12.7925 0.5 16.2305 0.5 17.8275C0.5 19.4275 4.673 19.8515 7.5 19.8515C7.971 19.8515 8.48 19.8385 9.001 19.8115C8.34 19.2845 8 18.6245 8 17.8275Z" fill="#8B95A1" fill-opacity="0.72"/>
<path fill-rule="evenodd" clip-rule="evenodd" d="M16.5 12.7935C11.46 12.7935 9.5 16.2305 9.5 17.8285C9.5 19.4265 13.673 19.8525 16.5 19.8525C19.327 19.8525 23.5 19.4265 23.5 17.8285C23.5 16.2305 21.54 12.7935 16.5 12.7935ZM16.5 11.6465C16.9925 11.6465 17.4801 11.5495 17.9351 11.361C18.39 11.1726 18.8034 10.8964 19.1517 10.5481C19.4999 10.1999 19.7761 9.78652 19.9645 9.33155C20.153 8.87658 20.25 8.38894 20.25 7.89648C20.25 7.40403 20.153 6.91639 19.9645 6.46142C19.7761 6.00645 19.4999 5.59305 19.1517 5.24483C18.8034 4.89661 18.39 4.62039 17.9351 4.43194C17.4801 4.24348 16.9925 4.14648 16.5 4.14648C15.5054 4.14648 14.5516 4.54157 13.8483 5.24483C13.1451 5.9481 12.75 6.90192 12.75 7.89648C12.75 8.89105 13.1451 9.84487 13.8483 10.5481C14.5516 11.2514 15.5054 11.6465 16.5 11.6465Z" fill="#8D949F"/>
</svg>
