<svg width="24" height="24" viewBox="0 0 24 24" fill="none" xmlns="http://www.w3.org/2000/svg">
<path fill-rule="evenodd" clip-rule="evenodd" d="M12.0002 12.7426C11.6394 12.7495 11.281 12.6844 10.9457 12.5512C10.6104 12.4179 10.305 12.2191 10.0475 11.9665C9.78994 11.7138 9.58534 11.4123 9.44568 11.0797C9.30601 10.747 9.23407 10.3899 9.23407 10.0291C9.23407 9.66827 9.30601 9.3111 9.44568 8.97844C9.58534 8.64577 9.78994 8.3443 10.0475 8.09164C10.305 7.83898 10.6104 7.64021 10.9457 7.50696C11.281 7.3737 11.6394 7.30864 12.0002 7.31556C12.7108 7.3292 13.3877 7.62108 13.8855 8.12848C14.3832 8.63587 14.6621 9.31828 14.6621 10.0291C14.6621 10.7398 14.3832 11.4222 13.8855 11.9296C13.3877 12.437 12.7108 12.7289 12.0002 12.7426ZM9.87617 1.03756C5.60617 1.99056 2.61217 6.00956 2.78017 10.3816C2.91217 13.8156 5.01917 16.8876 11.2882 22.9146C11.6842 23.2946 12.3182 23.2966 12.7152 22.9156C19.1992 16.6826 21.2312 13.6106 21.2312 10.0286C21.2312 4.23856 15.8982 -0.30644 9.87617 1.03856" fill="#8D949F"/>
</svg>
