<svg width="24" height="24" viewBox="0 0 24 24" fill="none" xmlns="http://www.w3.org/2000/svg">
<path fill-rule="evenodd" clip-rule="evenodd" d="M20.3178 10.7996H13.3178V3.79961C13.3178 3.48135 13.1913 3.17612 12.9663 2.95108C12.7413 2.72604 12.436 2.59961 12.1178 2.59961C11.7995 2.59961 11.4943 2.72604 11.2692 2.95108C11.0442 3.17612 10.9178 3.48135 10.9178 3.79961V10.7996H3.91777C3.59951 10.7996 3.29429 10.926 3.06925 11.1511C2.8442 11.3761 2.71777 11.6813 2.71777 11.9996C2.71777 12.3179 2.8442 12.6231 3.06925 12.8481C3.29429 13.0732 3.59951 13.1996 3.91777 13.1996H10.9178V20.1996C10.9178 20.5179 11.0442 20.8231 11.2692 21.0481C11.4943 21.2732 11.7995 21.3996 12.1178 21.3996C12.436 21.3996 12.7413 21.2732 12.9663 21.0481C13.1913 20.8231 13.3178 20.5179 13.3178 20.1996V13.1996H20.3178C20.636 13.1996 20.9413 13.0732 21.1663 12.8481C21.3913 12.6231 21.5178 12.3179 21.5178 11.9996C21.5178 11.6813 21.3913 11.3761 21.1663 11.1511C20.9413 10.926 20.636 10.7996 20.3178 10.7996Z" fill="#8D949F"/>
</svg>
