<svg width="24" height="24" viewBox="0 0 24 24" fill="none" xmlns="http://www.w3.org/2000/svg">
<path fill-rule="evenodd" clip-rule="evenodd" d="M7.5 3.75C6.50736 3.75 5.7 4.55736 5.7 5.55V15.45C5.7 16.4426 6.50736 17.25 7.5 17.25H8.55C8.96421 17.25 9.3 17.5858 9.3 18C9.3 18.4142 8.96421 18.75 8.55 18.75H7.5C5.67893 18.75 4.2 17.2711 4.2 15.45V5.55C4.2 3.72893 5.67893 2.25 7.5 2.25H17.4C19.2211 2.25 20.7 3.72893 20.7 5.55V6.6C20.7 7.01421 20.3642 7.35 19.95 7.35C19.5358 7.35 19.2 7.01421 19.2 6.6V5.55C19.2 4.55736 18.3926 3.75 17.4 3.75H7.5Z" fill="#8D949F"/>
<path fill-rule="evenodd" clip-rule="evenodd" d="M9.75 6.75C8.50736 6.75 7.5 7.75736 7.5 9V18.9C7.5 20.1211 8.37893 21 9.6 21H19.5C20.7426 21 21.75 19.9926 21.75 18.75V9C21.75 7.75736 20.7426 6.75 19.5 6.75H9.75ZM9 9C9 8.58579 9.33579 8.25 9.75 8.25H19.5C19.9142 8.25 20.25 8.58579 20.25 9V18.75C20.25 19.1642 19.9142 19.5 19.5 19.5H9.75C9.33579 19.5 9 19.1642 9 18.75V9Z" fill="#8D949F"/>
</svg>
