<svg width="24" height="24" viewBox="0 0 24 24" fill="none" xmlns="http://www.w3.org/2000/svg">
<path fill-rule="evenodd" clip-rule="evenodd" d="M15.066 16.7364C15.066 16.9751 14.9712 17.204 14.8024 17.3728C14.6336 17.5416 14.4047 17.6364 14.166 17.6364C13.9273 17.6364 13.6984 17.5416 13.5296 17.3728C13.3608 17.204 13.266 16.9751 13.266 16.7364V11.7304C13.266 11.4917 13.3608 11.2628 13.5296 11.094C13.6984 10.9252 13.9273 10.8304 14.166 10.8304C14.4047 10.8304 14.6336 10.9252 14.8024 11.094C14.9712 11.2628 15.066 11.4917 15.066 11.7304V16.7364ZM10.933 16.7364C10.933 16.9751 10.8382 17.204 10.6694 17.3728C10.5006 17.5416 10.2717 17.6364 10.033 17.6364C9.79431 17.6364 9.56539 17.5416 9.3966 17.3728C9.22782 17.204 9.133 16.9751 9.133 16.7364V11.7304C9.133 11.4917 9.22782 11.2628 9.3966 11.094C9.56539 10.9252 9.79431 10.8304 10.033 10.8304C10.2717 10.8304 10.5006 10.9252 10.6694 11.094C10.8382 11.2628 10.933 11.4917 10.933 11.7304V16.7364ZM9.029 3.85938C9.029 3.59416 9.13436 3.3398 9.32189 3.15227C9.50943 2.96473 9.76378 2.85938 10.029 2.85938H14.173C14.724 2.85938 15.173 3.30737 15.173 3.85938V4.80038H9.029V3.85938ZM20.299 4.80038H17.173V3.85938C17.173 2.20537 15.828 0.859375 14.173 0.859375H10.029C8.375 0.859375 7.029 2.20537 7.029 3.85938V4.80038H3.7C3.38174 4.80038 3.07652 4.9268 2.85147 5.15185C2.62643 5.37689 2.5 5.68212 2.5 6.00037V6.60037C2.5 6.91863 2.62643 7.22386 2.85147 7.4489C3.07652 7.67395 3.38174 7.80037 3.7 7.80037H3.831L4.303 19.8364C4.32755 20.4561 4.59107 21.0423 5.03831 21.472C5.48555 21.9017 6.08178 22.1416 6.702 22.1414H17.498C18.118 22.1416 18.714 21.9016 19.161 21.4719C19.6079 21.0421 19.871 20.4559 19.895 19.8364L20.369 7.78637C20.6734 7.77078 20.9603 7.63916 21.1706 7.41857C21.381 7.19798 21.4989 6.90518 21.5 6.60037V6.00037C21.5 5.33837 20.962 4.80038 20.299 4.80038Z" fill="#8D949F"/>
</svg>
