<svg width="24" height="24" viewBox="0 0 24 24" fill="none" xmlns="http://www.w3.org/2000/svg">
<path fill-rule="evenodd" clip-rule="evenodd" d="M20.1004 15.3752C20.1004 15.7202 19.9654 16.0652 19.7104 16.3352C19.4574 16.5871 19.1149 16.7285 18.7579 16.7285C18.4009 16.7285 18.0584 16.5871 17.8054 16.3352L12.0004 10.5302L6.21043 16.3352C5.95742 16.5871 5.61494 16.7285 5.25793 16.7285C4.90091 16.7285 4.55843 16.5871 4.30543 16.3352C4.05353 16.0822 3.91211 15.7397 3.91211 15.3827C3.91211 15.0257 4.05353 14.6832 4.30543 14.4302L11.0554 7.6802C11.3084 7.4283 11.6509 7.28688 12.0079 7.28688C12.3649 7.28688 12.7074 7.4283 12.9604 7.6802L19.7104 14.4302C19.9654 14.6852 20.1004 15.0302 20.1004 15.3752Z" fill="#8D949F"/>
</svg>
