<svg width="24" height="24" viewBox="0 0 24 24" fill="none" xmlns="http://www.w3.org/2000/svg">
<path fill-rule="evenodd" clip-rule="evenodd" d="M20.1001 8.62505C20.1002 8.80231 20.0653 8.97784 19.9973 9.14156C19.9293 9.30528 19.8297 9.45395 19.7041 9.57905L12.9541 16.329C12.8287 16.4545 12.6799 16.5539 12.5161 16.6218C12.3523 16.6897 12.1767 16.7246 11.9993 16.7246C11.822 16.7246 11.6464 16.6897 11.4826 16.6218C11.3188 16.5539 11.17 16.4545 11.0446 16.329L4.2946 9.57905C4.16487 9.45467 4.06129 9.30564 3.98992 9.1407C3.91855 8.97576 3.88083 8.79823 3.87898 8.61852C3.87712 8.43881 3.91117 8.26054 3.97912 8.09416C4.04707 7.92779 4.14756 7.77665 4.27469 7.64962C4.40182 7.52259 4.55303 7.42222 4.71946 7.3544C4.88589 7.28658 5.06419 7.25268 5.2439 7.25467C5.42361 7.25667 5.60111 7.29453 5.76599 7.36602C5.93087 7.43752 6.07982 7.54123 6.2041 7.67105L12.0001 13.4655L17.7946 7.67105C17.9833 7.48197 18.2239 7.35313 18.4859 7.30085C18.7478 7.24856 19.0194 7.27517 19.2663 7.37731C19.5131 7.47945 19.7241 7.65253 19.8725 7.87464C20.021 8.09675 20.1002 8.35791 20.1001 8.62505Z" fill="#8D949F"/>
</svg>
