<svg width="24" height="24" viewBox="0 0 24 24" fill="none" xmlns="http://www.w3.org/2000/svg">
<path fill-rule="evenodd" clip-rule="evenodd" d="M17.2068 10.4158L11.6228 15.9998C11.4353 16.1873 11.181 16.2926 10.9158 16.2926C10.6506 16.2926 10.3963 16.1873 10.2088 15.9998L6.7928 12.5828C6.69996 12.4899 6.62631 12.3797 6.57607 12.2584C6.52582 12.1371 6.49996 12.0071 6.49996 11.8758C6.49996 11.7445 6.52582 11.6145 6.57607 11.4932C6.62631 11.3718 6.69996 11.2616 6.7928 11.1688C6.88565 11.0759 6.99587 11.0023 7.11718 10.952C7.23849 10.9018 7.3685 10.8759 7.4998 10.8759C7.63111 10.8759 7.76112 10.9018 7.88243 10.952C8.00374 11.0023 8.11396 11.0759 8.2068 11.1688L10.9158 13.8778L15.7928 9.00178C15.8856 8.90894 15.9959 8.83529 16.1172 8.78504C16.2385 8.73479 16.3685 8.70893 16.4998 8.70893C16.6311 8.70893 16.7611 8.73479 16.8824 8.78504C17.0037 8.83529 17.114 8.90894 17.2068 9.00178C17.2997 9.09463 17.3733 9.20485 17.4235 9.32616C17.4738 9.44746 17.4997 9.57748 17.4997 9.70878C17.4997 9.84008 17.4738 9.9701 17.4235 10.0914C17.3733 10.2127 17.2997 10.3229 17.2068 10.4158ZM19.6998 2.80078H18.0698V1.80078C18.0698 1.53556 17.9644 1.28121 17.7769 1.09367C17.5894 0.906138 17.335 0.800781 17.0698 0.800781C16.8046 0.800781 16.5502 0.906138 16.3627 1.09367C16.1752 1.28121 16.0698 1.53556 16.0698 1.80078V2.80078H7.9298V1.80078C7.9298 1.53556 7.82445 1.28121 7.63691 1.09367C7.44938 0.906138 7.19502 0.800781 6.9298 0.800781C6.66459 0.800781 6.41023 0.906138 6.2227 1.09367C6.03516 1.28121 5.9298 1.53556 5.9298 1.80078V2.80078H4.2998C3.76937 2.80078 3.26066 3.0115 2.88559 3.38657C2.51052 3.76164 2.2998 4.27035 2.2998 4.80078V20.2008C2.2998 20.7312 2.51052 21.2399 2.88559 21.615C3.26066 21.9901 3.76937 22.2008 4.2998 22.2008H19.6998C20.2302 22.2008 20.7389 21.9901 21.114 21.615C21.4891 21.2399 21.6998 20.7312 21.6998 20.2008V4.80078C21.6998 4.27035 21.4891 3.76164 21.114 3.38657C20.7389 3.0115 20.2302 2.80078 19.6998 2.80078Z" fill="#8D949F"/>
</svg>
