<svg width="24" height="24" viewBox="0 0 24 24" fill="none" xmlns="http://www.w3.org/2000/svg">
<path fill-rule="evenodd" clip-rule="evenodd" d="M12.3349 5.45426L3.27288 14.5163L2.03688 19.1263L1.22388 22.1633C1.2013 22.2481 1.20142 22.3374 1.22421 22.4222C1.24701 22.507 1.29169 22.5843 1.35377 22.6464C1.41586 22.7085 1.49317 22.7531 1.57796 22.7759C1.66275 22.7987 1.75204 22.7988 1.83688 22.7763L4.87189 21.9623L9.48288 20.7263H9.48388L18.5459 11.6643L12.3359 5.45426H12.3349ZM22.2929 6.50426L17.4969 1.70726C17.4041 1.61432 17.2939 1.54058 17.1726 1.49027C17.0513 1.43996 16.9212 1.41406 16.7899 1.41406C16.6586 1.41406 16.5285 1.43996 16.4072 1.49027C16.2859 1.54058 16.1757 1.61432 16.0829 1.70726L13.6079 4.18126L19.8189 10.3923L22.2929 7.91726C22.3858 7.82448 22.4596 7.71427 22.5099 7.59296C22.5602 7.47164 22.5861 7.3416 22.5861 7.21026C22.5861 7.07893 22.5602 6.94889 22.5099 6.82757C22.4596 6.70626 22.3858 6.59605 22.2929 6.50326" fill="#8D949F"/>
</svg>
