<svg width="24" height="24" viewBox="0 0 24 24" fill="none" xmlns="http://www.w3.org/2000/svg">
<path fill-rule="evenodd" clip-rule="evenodd" d="M13.8151 11.9991L19.4661 6.34814C19.5775 6.23672 19.666 6.10442 19.7264 5.95881C19.7867 5.8132 19.8178 5.65712 19.8179 5.4995C19.8179 5.34187 19.7869 5.18577 19.7266 5.04013C19.6664 4.89448 19.578 4.76213 19.4666 4.65064C19.3551 4.53915 19.2228 4.4507 19.0772 4.39033C18.9316 4.32997 18.7755 4.29887 18.6179 4.29883C18.4603 4.29878 18.3042 4.32978 18.1585 4.39006C18.0129 4.45034 17.8805 4.53872 17.7691 4.65014L12.1181 10.3021L6.46605 4.65014C6.23841 4.43752 5.93706 4.32166 5.62561 4.32701C5.31416 4.33237 5.01698 4.45853 4.79678 4.67885C4.57658 4.89918 4.4506 5.19644 4.44543 5.50789C4.44026 5.81934 4.5563 6.12062 4.76905 6.34814L10.4211 11.9991L4.76905 17.6501C4.60201 17.8183 4.48843 18.0322 4.4426 18.2647C4.39677 18.4973 4.42073 18.7383 4.51147 18.9573C4.60221 19.1763 4.75568 19.3635 4.95258 19.4955C5.14947 19.6275 5.381 19.6984 5.61805 19.6991C5.92505 19.6991 6.23205 19.5821 6.46605 19.3481L12.1181 13.6961L17.7691 19.3481C17.8803 19.4598 18.0126 19.5484 18.1582 19.6088C18.3038 19.6693 18.4599 19.7004 18.6176 19.7004C18.7752 19.7004 18.9313 19.6693 19.0769 19.6088C19.2225 19.5484 19.3548 19.4598 19.4661 19.3481C19.5776 19.2367 19.6661 19.1043 19.7265 18.9587C19.7869 18.813 19.818 18.6568 19.818 18.4991C19.818 18.3414 19.7869 18.1853 19.7265 18.0396C19.6661 17.8939 19.5776 17.7616 19.4661 17.6501L13.8151 11.9991Z" fill="currentColor"/>
</svg>
